<svg width="9" height="15" viewBox="0 0 9 15" fill="none" xmlns="http://www.w3.org/2000/svg">
<path d="M6.99069 14.4042C6.82885 14.4047 6.66894 14.3711 6.52271 14.3057C6.37648 14.2403 6.24766 14.1448 6.14569 14.0263L0.913193 7.89865C0.753855 7.71591 0.666748 7.48669 0.666748 7.25013C0.666748 7.01358 0.753855 6.78436 0.913193 6.60162L6.32986 0.473921C6.51374 0.265358 6.77798 0.134201 7.06444 0.109302C7.3509 0.0844034 7.63613 0.167803 7.85736 0.341154C8.0786 0.514505 8.21772 0.763608 8.24413 1.03366C8.27054 1.30372 8.18208 1.5726 7.99819 1.78116L3.15569 7.25524L7.83569 12.7293C7.96817 12.8792 8.05232 13.0618 8.07819 13.2554C8.10406 13.4489 8.07056 13.6455 7.98167 13.8217C7.89278 13.9979 7.7522 14.1464 7.57658 14.2496C7.40096 14.3528 7.19765 14.4065 6.99069 14.4042Z" fill="#2F2F2F"/>
</svg>
