<svg width="24" height="23" viewBox="0 0 24 23" fill="none" xmlns="http://www.w3.org/2000/svg">
<path opacity="0.6" d="M11.2469 3.98458L12 4.84661L12.7531 3.98458C13.4773 3.15564 14.1391 2.50737 14.9304 2.05493C15.7031 1.61311 16.6562 1.32666 18 1.32666C19.2749 1.32666 20.4821 1.74653 21.3816 2.74629C22.29 3.7559 23 5.48565 23 8.32822C23 9.53955 22.3716 11.5828 20.575 13.9784C18.8615 16.2633 16.1221 18.8156 12 21.1814C7.87792 18.8156 5.1385 16.2633 3.42502 13.9784C1.62844 11.5828 1 9.53955 1 8.32822C1 5.48565 1.71004 3.7559 2.6184 2.74629C3.5179 1.74653 4.72512 1.32666 6 1.32666C7.34378 1.32666 8.29694 1.61311 9.06964 2.05493C9.86093 2.50737 10.5227 3.15564 11.2469 3.98458Z" fill="#2F2F2F" stroke="white" stroke-width="2"/>
</svg>
