<svg width="15" height="19" viewBox="0 0 15 19" fill="none" xmlns="http://www.w3.org/2000/svg">
<path d="M7.53762 0.327881C11.5586 0.327881 14.8179 3.58721 14.8179 7.60817C14.8179 10.6846 12.6562 14.0372 8.38885 17.702C8.15157 17.9059 7.84904 18.0178 7.53622 18.0175C7.22341 18.0173 6.92107 17.9048 6.68414 17.7005L6.40189 17.4556C2.32343 13.8864 0.257324 10.6159 0.257324 7.60817C0.257324 3.58721 3.51666 0.327881 7.53762 0.327881ZM7.53762 4.80806C6.79498 4.80806 6.08276 5.10307 5.55764 5.6282C5.03252 6.15332 4.73751 6.86554 4.73751 7.60817C4.73751 8.35081 5.03252 9.06303 5.55764 9.58815C6.08276 10.1133 6.79498 10.4083 7.53762 10.4083C8.28026 10.4083 8.99248 10.1133 9.5176 9.58815C10.0427 9.06303 10.3377 8.35081 10.3377 7.60817C10.3377 6.86554 10.0427 6.15332 9.5176 5.6282C8.99248 5.10307 8.28026 4.80806 7.53762 4.80806Z" fill="#2F2F2F"/>
</svg>
